<svg width="180" height="88" viewBox="0 0 180 88" fill="none" xmlns="http://www.w3.org/2000/svg">
<path d="M55.5962 26.8961H67.0199V30.6597H61.5855V57.1038H55.5962V26.8961Z" fill="#0079C2"/>
<path d="M73.7927 45.7635L74.8192 30.6597H75.163L76.1894 45.7635H73.7927ZM67.16 57.1038H73.0241L73.5791 49.0814H76.4031L76.9605 57.1038H82.8222L79.6986 26.8961H70.2836L67.16 57.1038Z" fill="#0079C2"/>
<path d="M91.3998 46.5311V52.226C91.3998 52.9935 91.9891 53.2164 92.3329 53.2164C92.8977 53.2164 93.2906 52.7459 93.2906 52.226V45.194C93.2906 44.2531 93.1187 43.2132 90.8841 43.2132H88.453V39.8953H90.9823C92.6767 39.8953 93.2906 39.4991 93.2906 37.6421V31.6501C93.2906 31.1301 92.8977 30.6597 92.3329 30.6597C91.9891 30.6597 91.3998 30.8578 91.3998 31.6501V36.5774H85.408V32.2939C85.408 30.1892 85.6535 26.8961 89.8527 26.8961H94.8132C99.0123 26.8961 99.2825 30.1892 99.2825 32.2939V37.1221C99.2825 40.4153 96.9987 41.3066 95.2061 41.2324V41.5295C99.2333 41.4304 99.2825 44.5503 99.2825 45.615V51.706C99.2825 53.8354 99.0123 57.1038 94.8132 57.1038H89.8527C85.6535 57.1038 85.408 53.8354 85.408 51.706V46.5311H91.3998Z" fill="#0079C2"/>
<path d="M103.211 26.8961H117.086V57.1038H111.094V30.6597H109.203V57.1038H103.211V26.8961Z" fill="#0079C2"/>
<path d="M127.007 43.5103V30.6597H127.793C128.431 30.6597 128.898 31.2044 128.898 32.1701V41.9999C128.898 42.9656 128.431 43.5103 127.793 43.5103H127.007ZM121.015 57.1038H127.007V46.8282H130.445C134.619 46.8282 134.89 43.5598 134.89 41.4304V32.2939C134.89 30.1892 134.619 26.8961 130.445 26.8961H121.015V57.1038Z" fill="#0079C2"/>
<path d="M146.701 52.226C146.701 52.7459 146.308 53.2164 145.744 53.2164C145.4 53.2164 144.81 52.9935 144.81 52.226V31.6501C144.81 30.8578 145.4 30.6597 145.744 30.6597C146.308 30.6597 146.701 31.1301 146.701 31.6501V52.226ZM138.819 51.706C138.819 53.8354 139.089 57.1038 143.263 57.1038H148.248C152.423 57.1038 152.693 53.8354 152.693 51.706V32.2939C152.693 30.1892 152.423 26.8961 148.248 26.8961H143.263C139.089 26.8961 138.819 30.1892 138.819 32.2939V51.706Z" fill="#0079C2"/>
<path d="M172.191 26.8961H180V57.1038H174.008V38.1621H173.787L170.693 57.1038H165.905L162.835 38.1621H162.614V57.1038H156.622V26.8961H164.407L168.311 48.1405L172.191 26.8961Z" fill="#0079C2"/>
<path d="M47.8314 15.7476C45.997 7.65095 41.4 1.0647 40.7665 0C39.7645 1.51038 36.0982 7.32906 34.2344 13.7668C32.1986 20.972 31.899 27.3602 32.6014 33.6246C33.2988 39.9137 35.9337 46.3762 35.9337 46.3762C37.3334 49.7436 39.4306 53.3833 40.7959 55.1661C42.7973 52.5415 47.3968 44.7172 48.8309 34.5159C49.6289 28.8211 49.6633 23.8442 47.8314 15.7476ZM40.7665 53.1357C39.8652 51.4273 38.4655 48.1837 38.3329 43.1326C38.2985 38.2795 40.2311 34.095 40.7959 33.2284C41.2993 34.095 42.9643 37.7348 43.1632 42.7116C43.2982 47.5647 41.6972 51.4025 40.7665 53.1357ZM47.2985 29.4896C47.2298 32.5846 46.8639 35.853 46.3973 37.8091C46.5643 34.4417 46.164 29.7124 45.3978 25.9984C44.6317 22.3091 42.4633 16.119 40.7321 13.2716C39.1334 15.9952 37.164 21.3434 36.1326 25.9736C35.0963 30.6038 35.0669 36.2244 35.0669 37.9081C34.7918 36.4968 34.1042 31.4209 34.2982 26.345C34.4603 22.1605 35.4327 17.8275 35.9656 15.8466C37.9989 9.23562 40.2999 5.00159 40.7321 4.33305C41.1643 5.00159 44.062 10.226 45.5648 15.6981C47.0603 21.1701 47.3624 26.4193 47.2985 29.4896Z" fill="#0079C2"/>
<path d="M29.9321 57.0479V66.4816C29.9443 66.4816 29.9542 66.4568 29.9664 66.4568C33.2521 63.139 38.5809 63.139 41.869 66.4568C45.1547 69.75 45.1547 75.123 41.869 78.4408C41.8543 78.4656 41.8396 78.4656 41.8248 78.4904C41.8077 78.4904 41.7905 78.5151 41.7757 78.5399C38.4974 81.8083 34.2148 83.4424 29.9321 83.4424C25.6297 83.4424 21.3274 81.8083 18.0467 78.4904C12.2611 72.6717 11.576 63.6341 15.9864 57.0479C16.5806 56.1565 17.2658 55.3146 18.0467 54.5223C21.3274 51.2044 25.6297 49.5702 29.9321 49.5702V26.8898C13.4006 26.8898 0 40.3841 0 57.0479C0 73.7116 13.4006 87.2308 29.9321 87.2308C38.5514 87.2308 46.3163 83.5415 51.7776 77.6733V57.0479H29.9321Z" fill="#0079C2"/>
<path d="M55.5732 60.0367H179.951V77.6475H55.5732V60.0367Z" fill="#0079C2"/>
<path d="M61.6598 73.7666L65.3093 63.7723H67.6124L71.2737 73.7666H68.8407L65.9825 65.1572H66.9037L64.0455 73.7666H61.6598ZM63.6558 71.8248L64.2581 69.7403H68.2974L68.8997 71.8248H63.6558Z" fill="white"/>
<path d="M82.7562 73.7666L80.4296 69.0122L82.3074 67.6701L85.39 73.7666H82.7562ZM77.4887 73.7666V63.7723H79.8154V73.7666H77.4887ZM79.1422 69.9402V67.6558H82.1421V69.9402H79.1422ZM82.5318 69.0693L80.3705 68.7837L82.9098 63.7723H85.3664L82.5318 69.0693Z" fill="white"/>
<path d="M90.4322 73.7666L94.0817 63.7723H96.3848L100.046 73.7666H97.6131L94.7549 65.1572H95.6761L92.8179 73.7666H90.4322ZM92.4282 71.8248L93.0305 69.7403H97.0698L97.6721 71.8248H92.4282Z" fill="white"/>
<path d="M111.846 72.5387V66.0139H109.472L109.436 67.099C109.42 67.6796 109.389 68.2221 109.342 68.7266C109.302 69.2311 109.243 69.6927 109.165 70.1115C109.094 70.5303 108.995 70.892 108.869 71.1966C108.751 71.4917 108.606 71.7201 108.432 71.8819L105.94 71.525C106.216 71.5345 106.44 71.425 106.613 71.1966C106.795 70.9586 106.936 70.6303 107.039 70.2115C107.149 69.7927 107.228 69.2977 107.275 68.7266C107.33 68.1555 107.369 67.5321 107.393 66.8563L107.487 63.7723H114.149V72.5387H111.846ZM105.692 75.7797V71.525H115.271V75.7797H113.133V73.7666H107.842V75.7797H105.692Z" fill="white"/>
<path d="M123.853 67.6415H127.692V69.7546H123.853V67.6415ZM124.019 71.5821H128.341V73.7666H121.704V63.7723H128.188V65.9568H124.019V71.5821Z" fill="white"/>
<path d="M134.988 73.7666V63.7723H136.914L140.327 70.5684H139.311L142.654 63.7723H144.579L144.602 73.7666H142.441L142.429 67.7272H142.795L140.303 72.7814H139.264L136.701 67.7272H137.138V73.7666H134.988Z" fill="white"/>
<path d="M151.676 73.7666V63.7723H153.979V69.6404L157.392 63.7723H159.589V73.7666H157.286V67.9128L153.884 73.7666H151.676Z" fill="white"/>
<path d="M171.297 73.7666V70.6684L171.852 71.2537H169.762C169.021 71.2537 168.384 71.1062 167.848 70.8111C167.313 70.516 166.899 70.0925 166.608 69.5404C166.325 68.9884 166.183 68.3316 166.183 67.5701C166.183 66.7801 166.333 66.1043 166.632 65.5427C166.939 64.9716 167.368 64.5338 167.919 64.2292C168.478 63.9246 169.132 63.7723 169.88 63.7723H173.6V73.7666H171.297ZM166.207 73.7666L168.273 70.1544H170.624L168.663 73.7666H166.207ZM171.297 69.7689V65.3L171.852 65.9996H169.927C169.47 65.9996 169.124 66.1281 168.888 66.3851C168.659 66.6326 168.545 67.0133 168.545 67.5273C168.545 68.0318 168.659 68.4173 168.888 68.6838C169.124 68.9408 169.462 69.0693 169.903 69.0693H171.852L171.297 69.7689Z" fill="white"/>
</svg>
